PathFileType	4	(X/Y/Z)	Trial.trc
DataRate	CameraRate	NumFrames	NumMarkers	Units	OrigDataRate	OrigDataStartFrame	OrigNumFrames
9	9	10	2	mm	9	1	10
Frame#	Time	Marker1			Marker2		
		X1	Y1	Z1	X2	Y2	Z2
1	0	0.130333854250192	1.97916987692321	-1.32369267201	0.668720097559857	0.657130289998175	0.952746210638758
2	0.111111111111111	-0.141504230274477	1.04058880772175	-1.29675623816218	-0.549707890091509	-0.0823986332237767	-1.50263943647902
3	0.222222222222222	0.624251649597879	0.944376838865693	0.366603439778936	0.939736416446752	-1.01124717846797	-0.110783570146621
4	0.333333333333333	-0.715606362879168	-0.46212463571506	0.522557295807894	1.96334948987441	-1.58918854874836	0.0462070053980785
5	0.444444444444444	1.3474346170687	0.881265334316935	0.845838748092843	-0.577704419788641	0.432190380873968	-0.395683158855615
6	0.555555555555556	1.91108490504853	0.509679802896772	0.944771135396995	0.391465988842669	0.527957122658244	-0.293656614411346
7	0.666666666666667	0.963501859611805	-1.07072026734364	-1.39469835949114	0.105117795792913	-0.464806015405717	-0.948031716172574
8	0.777777777777778	-0.610272377342751	-0.12681091528357	-0.75759983584149	1.43914908423873	0.424864954428481	0.931268327303373
9	0.888888888888889	0.933839958879774	0.765314904284428	0.552328286003063	0.680504364399106	2.42104294499198	-1.67988181315581
10	1	-1.59293316090919	-0.755875512613318	1.90105469700741	-0.413890347978987	-1.19614093540569	-0.253593877338372
